<?xml version="1.0" standalone="no"?>
<!DOCTYPE svg PUBLIC "-//W3C//DTD SVG 20010904//EN"
 "http://www.w3.org/TR/2001/REC-SVG-20010904/DTD/svg10.dtd">
<svg version="1.0" xmlns="http://www.w3.org/2000/svg"
 width="340.000000pt" height="340.000000pt" viewBox="0 0 340.000000 340.000000"
 preserveAspectRatio="xMidYMid meet">
<metadata>
Created by potrace 1.11, written by Peter Selinger 2001-2013
</metadata>
<g transform="translate(0.000000,340.000000) scale(0.100000,-0.100000)"
fill="#000000" stroke="none">
<path d="M1982 3282 c-11 -10 -72 -66 -136 -126 l-115 -108 71 -67 c39 -36 85
-79 102 -95 17 -15 85 -78 150 -140 65 -61 135 -126 155 -144 56 -52 158 -148
242 -226 194 -183 316 -296 339 -317 38 -33 121 -69 162 -69 40 0 72 23 186
132 l62 60 -21 19 c-12 10 -73 67 -136 126 -64 59 -127 119 -142 132 -14 13
-82 76 -150 140 -68 64 -135 127 -150 140 -14 13 -62 58 -106 100 -45 42 -114
107 -155 145 -69 64 -130 121 -282 263 -54 51 -56 52 -76 35z m883 -962 c17
-10 38 -35 49 -54 18 -33 18 -37 2 -61 -15 -23 -22 -25 -49 -19 -45 9 -82 38
-101 78 -21 44 -20 52 6 70 24 17 46 14 93 -14z"/>
<path d="M1164 3063 c-20 -4 -64 -42 -242 -208 -59 -56 -64 -64 -63 -100 0
-22 3 -49 5 -60 13 -57 58 -253 62 -270 2 -11 6 -29 8 -40 36 -172 79 -344 93
-373 24 -52 119 -144 176 -171 127 -61 234 -20 230 87 -1 20 -25 138 -53 262
-68 300 -70 311 -59 332 12 23 62 24 99 1 40 -23 66 -76 85 -174 10 -47 22
-86 29 -86 22 0 130 -15 136 -18 3 -2 28 -5 55 -8 28 -3 97 -13 155 -21 58 -9
125 -18 150 -21 68 -9 102 -14 255 -36 77 -10 158 -22 180 -25 22 -3 49 -7 60
-10 12 -4 1 12 -30 41 -27 26 -104 97 -169 159 -65 61 -131 122 -145 135 -14
13 -58 53 -96 90 -117 110 -326 305 -388 362 -64 58 -57 55 -377 128 -115 26
-129 28 -156 24z"/>
<path d="M680 2631 c-14 -14 -69 -67 -122 -117 -53 -50 -100 -102 -103 -115
-4 -15 5 -67 20 -125 15 -54 30 -115 35 -134 39 -160 49 -183 92 -223 24 -22
72 -68 108 -101 36 -34 133 -124 215 -201 149 -139 241 -225 319 -299 22 -21
88 -82 145 -135 57 -53 118 -109 136 -126 17 -16 44 -41 58 -54 l27 -24 24 22
c25 24 42 24 139 5 12 -2 83 -15 157 -29 74 -14 155 -30 180 -35 25 -5 58 -12
74 -15 16 -2 53 -9 83 -15 107 -23 206 8 240 73 18 34 23 124 10 171 l-8 28
38 -7 c62 -13 144 -14 168 -3 25 11 43 40 49 78 3 21 -34 147 -64 215 -4 11
-15 39 -24 63 l-16 42 51 0 c40 0 55 5 74 25 30 29 32 63 6 137 -26 76 -44
108 -82 146 -71 72 -114 87 -344 116 -27 4 -57 9 -65 11 -8 2 -39 6 -69 10
-46 4 -192 25 -291 40 -14 2 -43 6 -65 9 -66 9 -268 37 -293 41 -18 3 -22 0
-18 -13 26 -89 48 -232 43 -280 -16 -156 -176 -208 -382 -124 -147 60 -307
215 -368 357 -14 34 -57 212 -123 519 -20 94 -24 98 -54 67z"/>
<path d="M463 1862 c-6 -4 -68 -60 -137 -125 l-125 -118 74 -70 c40 -39 82
-78 93 -88 11 -9 80 -73 152 -141 72 -68 140 -132 151 -141 11 -9 74 -68 140
-130 67 -63 133 -125 148 -138 14 -13 60 -56 101 -95 234 -220 324 -301 336
-304 13 -3 52 30 160 136 55 53 60 92 23 165 -20 39 -53 73 -175 186 -38 36
-105 99 -149 140 -91 86 -306 286 -346 322 -15 13 -84 78 -154 144 -71 66
-138 129 -150 140 -12 11 -46 43 -76 72 -32 31 -59 49 -66 45z m863 -965 c62
-32 89 -111 45 -133 -66 -34 -183 84 -136 136 19 21 47 20 91 -3z"/>
<path d="M205 392 c-3 -3 -5 -69 -5 -146 l0 -141 105 -1 105 0 0 27 c0 27 -1
27 -65 25 l-65 -2 -1 31 c0 16 -1 70 -2 120 l-2 90 -32 1 c-18 1 -35 -1 -38
-4z"/>
<path d="M462 250 l3 -145 108 0 107 -1 0 26 c0 24 -2 25 -62 25 -84 -1 -86 0
-79 38 6 29 10 32 46 33 73 2 73 2 67 29 -4 23 -9 25 -57 25 -42 0 -54 4 -57
18 -10 42 0 48 67 45 l65 -2 0 28 0 28 -105 -1 -106 -1 3 -145z"/>
<path d="M710 368 c0 -26 2 -27 42 -25 l43 2 0 -112 c0 -61 4 -115 8 -120 13
-12 67 -12 68 1 1 6 2 56 3 111 0 55 4 105 8 111 4 6 23 10 42 8 27 -3 35 0
39 16 3 11 0 23 -6 27 -7 5 -65 8 -129 9 l-118 0 0 -28z"/>
<path d="M1043 386 c-39 -18 -64 -62 -53 -92 11 -28 41 -49 103 -71 55 -20 69
-39 43 -59 -19 -14 -55 -10 -95 10 -24 12 -28 11 -48 -14 l-23 -28 38 -15 c50
-20 148 -16 185 7 15 10 30 29 33 43 12 44 -11 73 -86 106 -49 22 -70 36 -70
49 0 24 60 28 88 5 10 -8 20 -4 39 15 l26 26 -23 12 c-35 19 -121 22 -157 6z"/>
<path d="M1515 392 c-61 -21 -95 -73 -95 -147 0 -91 56 -145 150 -145 22 0 56
7 76 15 31 13 33 16 22 35 -14 22 -25 24 -62 10 -31 -12 -82 4 -96 30 -16 31
-12 106 8 129 22 26 63 33 95 16 23 -12 29 -11 46 5 12 9 21 21 21 26 0 23
-119 42 -165 26z"/>
<path d="M1789 380 c-96 -51 -92 -225 6 -266 70 -29 157 -9 197 46 26 36 30
119 8 167 -30 68 -134 94 -211 53z m121 -52 c11 -12 20 -29 21 -37 0 -9 2 -24
4 -34 2 -9 -1 -33 -6 -53 -12 -42 -50 -61 -86 -45 -48 22 -60 125 -18 166 30
31 58 32 85 3z"/>
<path d="M2085 390 c-2 -4 -4 -69 -3 -146 l0 -139 104 -1 104 0 0 27 c0 26 -2
27 -52 25 -29 -1 -59 0 -65 2 -10 3 -13 36 -13 121 l0 117 -36 0 c-19 0 -37
-3 -39 -6z"/>
<path d="M2350 390 c-7 -4 -10 -53 -8 -146 l3 -139 103 0 103 -1 -3 25 c-3 25
-6 26 -63 26 l-60 1 -5 119 -5 120 -27 1 c-15 1 -32 -2 -38 -6z"/>
<path d="M2670 376 c-38 -99 -89 -235 -94 -252 -6 -19 -3 -21 31 -19 32 1 39
6 50 33 13 31 15 32 72 32 58 0 60 -1 70 -33 10 -29 15 -33 52 -34 34 -2 40 1
36 15 -3 9 -27 75 -54 147 l-48 130 -53 1 c-46 1 -55 -2 -62 -20z m89 -121 l9
-35 -39 3 c-30 1 -39 6 -36 17 3 8 11 36 18 62 l13 48 13 -30 c6 -17 16 -46
22 -65z"/>
<path d="M2942 251 l3 -146 75 -1 c116 -1 180 30 180 86 0 28 -27 60 -50 60
-9 0 -6 8 8 23 41 43 16 115 -40 118 -13 1 -58 2 -101 4 l-78 2 3 -146z m168
65 c0 -22 -24 -36 -60 -36 -33 0 -36 2 -36 28 1 18 7 29 21 33 25 7 75 -9 75
-25z m-2 -100 c17 -10 15 -46 -4 -53 -8 -3 -32 -6 -52 -6 -34 -1 -36 1 -37 28
0 17 3 33 8 36 11 8 70 5 85 -5z"/>
</g>
</svg>
